<?xml version="1.0" standalone="no"?>
<!DOCTYPE svg PUBLIC "-//W3C//DTD SVG 20010904//EN"
 "http://www.w3.org/TR/2001/REC-SVG-20010904/DTD/svg10.dtd">
<svg version="1.0" xmlns="http://www.w3.org/2000/svg"
 width="500.000000pt" height="500.000000pt" viewBox="0 0 500.000000 500.000000"
 preserveAspectRatio="xMidYMid meet">

<g transform="translate(0.000000,500.000000) scale(0.100000,-0.100000)"
fill="#000000" stroke="none">
<path d="M2390 4313 c-162 -17 -411 -93 -574 -175 -113 -57 -276 -164 -351
-232 l-50 -45 118 -1 117 0 0 -180 0 -180 -470 0 -470 0 0 -170 0 -170 120 0
120 0 0 35 0 35 50 0 c43 0 50 -3 50 -19 0 -17 -5 -19 -35 -14 l-35 6 0 -112
0 -111 161 0 c124 0 160 3 156 13 -3 9 -39 12 -138 12 l-134 0 0 78 0 77 320
-2 c277 -3 320 -5 320 -18 0 -13 -42 -15 -307 -18 l-306 -2 -4 -46 c-2 -27 1
-48 7 -51 6 -2 63 -2 126 -1 l114 3 3 28 c3 24 8 27 38 27 31 0 34 -2 34 -30
l0 -30 147 0 c80 0 143 -3 139 -7 -4 -4 -69 -7 -144 -8 l-137 0 -7 -75 c-10
-100 -1 -210 18 -210 8 0 14 -10 14 -25 0 -20 -6 -25 -32 -29 -38 -6 -105 -6
-166 1 -40 4 -43 6 -40 31 3 25 6 27 58 28 30 1 61 2 68 3 8 1 12 19 12 56 l0
55 -77 1 c-43 0 -176 3 -295 5 l-218 5 0 -36 0 -35 -130 0 c-123 0 -130 -1
-130 -20 0 -27 -27 -25 363 -28 240 -2 247 -3 247 -22 0 -18 -7 -20 -54 -20
-43 0 -54 -3 -52 -16 1 -14 -16 -16 -136 -14 -91 0 -138 -3 -138 -10 0 -11 2
-11 162 -10 100 1 118 -1 118 -14 0 -14 -19 -16 -125 -16 l-125 0 0 -27 c0
-56 -17 -54 451 -53 339 0 436 3 447 13 16 17 122 227 122 243 0 6 -9 14 -20
17 -14 3 -20 14 -20 31 0 22 4 26 30 26 25 0 30 -4 30 -24 0 -32 20 -44 27
-17 11 44 20 18 22 -61 2 -143 32 -324 71 -435 11 -31 20 -62 20 -69 0 -6 -18
-39 -40 -73 -45 -70 -46 -71 -24 -71 10 0 14 -6 10 -17 -3 -10 -12 -44 -21
-75 l-16 -58 -52 0 c-77 0 -84 -8 -62 -66 l18 -47 -24 -20 -24 -19 -3 121 -3
121 -122 1 c-67 0 -187 0 -267 -1 l-145 -1 25 23 c14 13 59 52 100 87 41 36
125 114 185 175 l110 111 -495 3 c-272 1 -501 0 -508 -3 -13 -5 -16 -52 -6
-79 5 -14 54 -16 441 -16 386 0 434 -2 423 -15 -11 -13 -60 -15 -332 -15
l-321 0 7 -31 c3 -17 6 -35 6 -40 0 -5 120 -9 266 -9 236 0 265 -2 254 -15
-10 -13 -52 -15 -260 -15 -211 0 -249 -2 -254 -15 -4 -11 -22 -15 -76 -15 -40
0 -70 -4 -70 -10 0 -6 104 -10 293 -10 l292 0 -55 -50 -55 -49 -152 -1 -152 0
6 -37 c3 -21 7 -40 9 -42 2 -2 51 -6 110 -9 l105 -5 -27 -28 c-15 -16 -25 -32
-21 -35 3 -4 26 -1 51 5 70 17 86 15 86 -14 0 -14 -6 -25 -12 -25 -7 -1 -65
-2 -128 -3 l-115 -2 3 -30 c6 -52 15 -55 138 -55 95 0 114 -3 114 -15 0 -11
-12 -15 -44 -15 -44 0 -45 0 -48 -37 -4 -52 -28 -56 -28 -4 l0 41 -86 0 c-64
0 -85 -3 -82 -12 3 -8 29 -14 71 -16 66 -3 86 -15 47 -27 -28 -9 -25 -25 5
-25 16 0 25 -6 25 -15 0 -21 13 -19 70 10 27 14 57 25 65 25 32 0 0 -23 -89
-66 l-91 -43 445 -1 c245 0 720 -2 1055 -4 336 -2 878 0 1205 3 l594 6 -87 42
c-48 23 -87 47 -87 53 0 14 29 6 93 -26 46 -24 47 -24 47 -4 0 16 7 20 30 20
34 0 40 15 9 23 -38 10 -9 27 47 27 42 0 54 3 54 15 0 13 -12 15 -72 13 l-72
-3 -1 -35 c0 -24 -5 -35 -15 -35 -10 0 -15 11 -15 35 l0 35 -52 3 c-38 2 -53
7 -53 18 0 11 21 14 115 14 125 0 135 5 135 64 l0 26 -120 0 -120 0 0 25 c0
22 4 25 34 25 18 0 47 -5 65 -11 44 -15 50 -4 17 30 l-27 28 23 6 c13 3 56 6
97 6 41 1 76 2 76 4 1 1 5 19 8 40 l6 37 -138 0 -137 0 -55 50 -54 49 278 1
c178 0 277 4 277 10 0 6 -32 10 -75 10 -60 0 -75 3 -75 15 0 13 -32 15 -229
15 -126 0 -236 3 -245 6 -48 18 7 24 233 24 l249 0 4 40 4 40 -299 0 c-220 0
-304 3 -320 13 -18 10 56 13 403 17 l425 5 3 48 3 47 -488 0 -488 0 -22 35
c-13 19 -23 37 -23 40 0 3 186 5 414 5 451 0 426 -3 426 56 l0 24 -120 0 -120
0 0 40 0 40 -40 0 c-33 0 -40 3 -40 20 0 19 7 20 239 20 281 0 331 5 331 31 0
18 -10 19 -125 19 l-125 0 0 35 0 35 -267 3 -268 2 268 3 267 2 0 30 0 30
-100 0 -100 0 0 30 0 30 170 0 c144 0 170 2 170 15 0 13 -25 15 -152 17 -91 1
-120 3 -70 5 l82 4 0 49 0 50 -105 0 -106 0 2 -64 c1 -35 -1 -68 -5 -75 -11
-18 -96 -14 -96 4 0 9 -9 15 -22 16 -91 2 -202 9 -206 14 -3 3 47 5 111 5
l117 0 0 45 c0 29 -4 45 -12 45 -7 1 -140 2 -295 4 -227 2 -285 5 -299 17 -16
13 -14 15 22 21 21 4 161 7 311 7 l272 1 3 88 3 87 108 3 c100 2 108 1 105
-15 -3 -16 -13 -18 -96 -14 l-92 3 0 -156 c0 -86 3 -156 8 -156 27 1 31 21 33
143 0 73 5 125 10 121 5 -3 9 -12 9 -20 0 -10 13 -14 46 -14 38 0 45 -3 42
-17 -2 -13 -14 -19 -41 -21 -24 -2 -37 -8 -37 -18 0 -11 20 -14 105 -14 l105
0 0 170 0 170 -460 0 -460 0 0 180 0 180 108 0 107 1 -50 45 c-222 201 -557
352 -885 399 -95 13 -301 18 -390 8z m159 -135 c94 -39 159 -117 171 -202 5
-42 1 -39 93 -60 23 -6 26 -10 17 -21 -8 -10 -6 -28 9 -73 27 -83 37 -99 71
-117 26 -14 30 -21 30 -58 0 -65 37 -98 147 -130 60 -18 70 -12 80 47 3 20 9
36 13 36 17 0 52 -53 97 -145 36 -76 63 -116 112 -165 34 -36 67 -78 72 -95
13 -44 11 -85 -4 -85 -19 0 -79 66 -121 134 -21 32 -40 56 -42 53 -3 -3 -1
-14 4 -24 22 -40 32 -160 21 -239 -17 -125 -61 -215 -145 -297 -56 -54 -65
-49 -43 24 22 72 43 240 33 271 -5 17 -9 11 -24 -32 -18 -54 -48 -101 -68
-108 -8 -2 -12 13 -12 51 0 80 -34 200 -77 270 l-38 62 -3 -50 c-2 -27 -7 -54
-11 -60 -4 -5 -14 -32 -21 -60 -14 -51 -46 -125 -56 -125 -3 0 -2 26 1 58 6
60 -14 215 -35 267 l-12 30 -9 -24 c-5 -13 -25 -49 -43 -80 -19 -31 -42 -85
-52 -121 -17 -65 -81 -207 -110 -245 -15 -20 -16 -20 -40 10 -13 17 -37 57
-53 90 l-30 60 0 -49 c-1 -43 -3 -47 -17 -35 -43 35 -104 216 -104 308 0 77
-16 83 -37 15 -13 -44 -18 -89 -17 -176 0 -94 -2 -115 -12 -107 -33 28 -84
175 -84 244 0 19 -4 35 -9 35 -16 0 -100 -119 -111 -158 -6 -20 -14 -71 -17
-112 -3 -48 -12 -82 -22 -93 -15 -18 -16 -18 -22 5 -3 12 -2 25 2 28 4 3 -1
23 -11 45 -11 22 -19 46 -20 53 0 6 -4 12 -9 12 -18 0 -22 -124 -6 -214 9 -49
14 -91 12 -93 -9 -8 -108 79 -132 115 -46 70 -57 118 -57 247 l0 120 -42 -110
c-24 -60 -47 -119 -52 -130 -11 -26 -22 141 -13 203 l6 42 -37 0 c-37 0 -139
26 -153 39 -4 4 15 22 43 40 28 18 74 59 102 92 36 41 60 59 78 60 17 1 19 3
8 6 -10 2 -18 9 -18 15 0 33 193 235 282 296 163 111 390 183 530 168 32 -3
58 -2 58 2 0 4 -10 25 -23 46 -31 56 -109 96 -186 96 -73 0 -114 -12 -184 -54
-31 -19 -57 -30 -57 -25 0 15 45 82 71 105 108 97 224 122 338 72z m727 -255
c-17 -124 -16 -123 -44 -128 -15 -3 -46 -10 -70 -15 -59 -14 -88 -12 -123 6
l-30 15 18 32 c27 46 95 94 166 116 90 29 90 29 83 -26z m-299 -43 c30 -18 32
-21 21 -51 -6 -18 -18 -40 -27 -49 -9 -9 -21 -25 -26 -35 -19 -32 -51 -3 -74
67 -20 59 -20 64 -4 75 25 19 73 16 110 -7z m49 -147 c31 -34 74 -119 74 -150
0 -27 -24 -30 -75 -9 -55 23 -80 95 -55 160 12 33 23 33 56 -1z m-1715 -284
c46 -23 70 -68 71 -130 1 -73 -70 -136 -144 -126 -138 18 -172 186 -52 254 49
28 74 29 125 2z m2633 -10 c20 -16 26 -29 26 -59 0 -72 -84 -106 -135 -55 -73
72 28 178 109 114z m-320 -161 c16 -8 25 -18 19 -21 -15 -9 -108 38 -127 64
-31 45 -16 50 32 11 26 -22 60 -46 76 -54z m-794 -222 c0 -55 -3 -58 -84 -95
-5 -2 0 11 11 30 11 19 28 55 38 81 10 26 21 45 26 42 5 -3 9 -29 9 -58z
m-613 -32 c-10 -11 -97 -31 -97 -23 0 15 42 93 54 101 7 5 18 -8 29 -34 9 -22
16 -42 14 -44z m1628 -121 l0 -178 66 -3 c59 -3 68 -5 73 -24 3 -12 4 -23 3
-24 -1 -1 -56 -3 -122 -5 l-120 -4 -3 27 c-3 21 1 27 20 30 23 3 23 5 26 141
l3 137 -84 0 c-46 0 -113 3 -148 8 -57 6 -48 8 81 12 l145 5 3 28 c3 22 8 27
30 27 l27 0 0 -177z m-1461 97 c35 -53 33 -56 -11 -23 -21 15 -39 28 -41 29
-5 3 10 34 18 34 4 0 19 -18 34 -40z m-615 -42 c-1 -13 -4 -34 -8 -48 l-7 -25
-6 28 c-6 33 0 67 13 67 5 0 9 -10 8 -22z m2304 5 c-7 -2 -21 -2 -30 0 -10 3
-4 5 12 5 17 0 24 -2 18 -5z m-1586 -78 c8 24 9 23 51 -31 l43 -56 37 47 c28
37 37 43 42 30 5 -14 8 -14 24 4 20 21 63 30 51 10 -4 -6 2 -5 14 3 29 18 56
0 56 -38 0 -26 -3 -29 -35 -30 l-35 0 1 -56 c1 -41 8 -68 27 -101 36 -61 64
-77 136 -77 58 0 63 2 105 43 29 28 48 56 55 85 12 43 31 49 31 9 0 -13 -6
-46 -14 -75 -12 -47 -12 -52 2 -47 12 5 14 -3 9 -46 -8 -62 -15 -71 -97 -124
-95 -61 -189 -96 -312 -116 -44 -7 -74 -17 -71 -22 9 -15 -149 1 -247 24 -94
23 -210 75 -253 114 -24 22 -29 35 -34 97 -5 53 -3 69 5 64 16 -9 15 0 -4 64
-18 60 -12 131 11 150 13 11 15 4 15 -47 0 -33 3 -62 6 -66 4 -3 21 10 39 29
38 40 61 43 100 12 l28 -22 21 28 c44 61 51 66 65 57 8 -5 17 -28 20 -52 3
-23 11 -44 18 -46 17 -6 27 58 19 129 -5 41 -4 58 3 53 6 -3 11 2 11 12 1 15
5 13 25 -9 l24 -27 8 24z m-303 -1 c29 -29 15 -64 -25 -64 -22 0 -30 6 -35 25
-11 45 29 71 60 39z m1284 -50 c3 -22 -21 -39 -39 -28 -11 6 -12 38 -2 48 13
13 38 1 41 -20z m-1808 -64 c0 -72 -7 -82 -40 -60 -13 8 -11 11 7 16 17 5 21
12 18 35 -6 48 -27 60 -97 57 l-63 -3 -3 -62 -3 -63 91 0 c69 0 91 -3 88 -12
-3 -9 -36 -14 -106 -16 l-102 -3 0 91 0 90 105 0 105 0 0 -70z m1983 53 c-23
-2 -64 -2 -90 0 -26 2 -7 3 42 3 50 0 71 -1 48 -3z m-1780 -41 c14 -21 56 -60
94 -86 l70 -47 1 -157 c1 -214 10 -304 38 -381 13 -35 22 -66 20 -68 -10 -10
-81 82 -126 163 -60 110 -86 180 -105 291 -15 86 -32 323 -23 323 3 0 17 -17
31 -38z m1403 -129 c4 -20 4 -81 0 -136 -11 -165 -86 -360 -176 -457 -28 -30
-49 -47 -46 -37 23 74 47 242 56 407 7 107 16 202 21 210 6 11 8 4 9 -22 0
-21 4 -38 9 -38 6 0 31 25 57 55 26 30 51 55 55 55 5 0 11 -16 15 -37z m295
-159 c107 -108 257 -251 333 -317 l140 -122 -119 -3 c-113 -3 -119 -2 -144 21
-14 14 -60 44 -101 67 -167 95 -258 247 -305 513 -4 20 -5 37 -3 37 2 0 92
-88 199 -196z m144 186 c9 -15 -33 -21 -119 -18 -52 2 -81 7 -84 16 -5 15 193
18 203 2z m-764 -20 c10 -6 19 -15 19 -20 0 -15 -62 -27 -98 -19 -41 9 -46 14
-39 34 7 18 87 21 118 5z m-392 -489 c0 -3 -26 -27 -58 -53 l-58 -46 -27 66
c-42 103 -42 97 0 114 l38 15 53 -45 c29 -25 53 -48 52 -51z m196 75 c19 -8
35 -17 35 -20 0 -14 -44 -123 -54 -133 -9 -10 -23 -2 -63 33 l-51 45 47 44
c25 25 47 45 49 45 1 0 18 -7 37 -14z m-403 -58 c8 -13 27 -57 43 -98 15 -41
29 -77 31 -79 2 -2 20 11 41 28 21 17 41 31 45 31 17 0 6 -26 -23 -56 -62 -64
-45 -176 31 -216 l35 -18 -159 0 -158 0 7 63 c4 34 13 102 21 151 7 49 12 91
10 93 -13 13 -74 -181 -88 -282 -3 -17 -14 -22 -71 -29 -37 -5 -70 -7 -73 -3
-9 8 48 135 102 228 47 81 158 209 181 209 6 0 17 -10 25 -22z m503 -15 c31
-113 19 -376 -18 -388 -23 -8 -217 -10 -217 -2 0 4 5 7 11 7 26 0 69 43 80 80
17 55 4 104 -36 143 -31 30 -47 67 -29 67 10 0 68 -42 86 -63 14 -15 19 -17
23 -6 24 67 65 183 65 186 0 1 6 3 14 3 8 0 17 -12 21 -27z m-265 -83 c0 -22
-4 -40 -10 -40 -11 0 -14 63 -3 73 11 12 13 8 13 -33z m48 -106 c33 -37 29
-79 -12 -120 -63 -63 -146 -33 -146 53 0 44 14 69 48 88 36 20 81 11 110 -21z
m-1032 18 c8 -5 12 -64 12 -184 l0 -178 -59 0 c-48 0 -60 -3 -69 -20 -10 -18
-21 -20 -105 -20 -84 0 -96 2 -107 20 -10 16 -24 20 -70 20 l-58 0 0 180 0
180 213 3 c116 1 217 3 222 5 6 1 15 -2 21 -6z m2362 -40 c9 -1 12 -37 12
-137 l0 -135 -192 2 -193 3 -3 132 -3 132 38 3 c43 3 321 4 341 0z m-1969 -84
c-12 -29 -34 -87 -49 -128 -15 -41 -31 -83 -35 -92 -6 -15 -2 -18 19 -18 17 0
26 -5 26 -15 0 -13 -14 -15 -82 -13 -54 2 -83 7 -86 16 -2 7 6 12 22 12 14 0
26 3 26 7 0 4 -27 67 -60 140 -33 72 -60 134 -60 137 0 3 67 6 150 6 l150 0
-21 -52z m1444 35 c-4 -10 -21 -45 -37 -78 -30 -58 -33 -60 -73 -63 l-41 -3
-7 -50 c-6 -40 -4 -53 9 -62 8 -7 12 -17 8 -24 -10 -16 -94 -21 -100 -5 -2 6
2 12 10 12 39 1 38 15 -7 139 -25 67 -45 129 -45 137 0 11 26 14 145 14 133 0
144 -1 138 -17z m42 -73 c3 -5 2 -10 -4 -10 -5 0 -13 5 -16 10 -3 6 -2 10 4
10 5 0 13 -4 16 -10z m-1745 -56 c0 -10 -12 -14 -45 -14 -50 0 -61 16 -17 26
15 3 32 7 37 9 15 4 25 -4 25 -21z m1758 11 c36 -10 25 -25 -18 -25 -34 0 -40
3 -40 21 0 15 5 19 18 15 9 -2 27 -7 40 -11z m-525 -120 l37 -75 -420 0 c-268
0 -420 4 -420 10 0 5 14 39 32 75 l32 65 351 0 351 0 37 -75z"/>
<path d="M1287 3404 c-14 -15 -6 -34 14 -34 14 0 19 5 17 17 -3 18 -20 27 -31
17z"/>
<path d="M3905 3410 c3 -5 10 -10 16 -10 5 0 9 5 9 10 0 6 -7 10 -16 10 -8 0
-12 -4 -9 -10z"/>
<path d="M3938 3377 c-3 -19 -2 -25 4 -19 6 6 8 18 6 28 -3 14 -5 12 -10 -9z"/>
<path d="M2510 2468 c0 -15 39 -38 65 -38 26 0 65 23 65 38 0 13 -3 13 -18 -1
-10 -10 -31 -17 -47 -17 -16 0 -37 7 -47 17 -15 14 -18 14 -18 1z"/>
<path d="M1772 1902 c-13 -2 -21 -9 -19 -15 5 -17 198 -22 208 -5 4 6 5 16 2
21 -5 8 -141 7 -191 -1z"/>
<path d="M3180 1895 c0 -28 39 -37 123 -30 75 6 103 17 91 37 -3 4 -52 8 -110
8 -85 0 -104 -3 -104 -15z"/>
<path d="M2240 1705 c-6 -14 -14 -36 -20 -50 -7 -19 -6 -25 4 -25 7 0 20 18
29 40 l16 40 312 -2 313 -3 8 -32 c8 -32 24 -50 35 -40 3 3 -3 26 -12 51 l-18
46 -329 0 -328 0 -10 -25z"/>
<path d="M2427 1673 c-4 -3 -7 -15 -7 -25 0 -15 8 -18 60 -18 57 0 60 1 60 25
0 24 -3 25 -53 25 -30 0 -57 -3 -60 -7z"/>
<path d="M2610 1655 c0 -24 2 -25 61 -25 57 0 60 1 57 23 -3 19 -10 22 -60 25
-56 3 -58 2 -58 -23z"/>
<path d="M3546 3811 c-4 -7 -5 -15 -2 -18 9 -9 19 4 14 18 -4 11 -6 11 -12 0z"/>
<path d="M3600 3805 c0 -9 5 -15 11 -13 6 2 11 8 11 13 0 5 -5 11 -11 13 -6 2
-11 -4 -11 -13z"/>
<path d="M3660 3805 c0 -8 7 -15 15 -15 8 0 15 7 15 15 0 8 -7 15 -15 15 -8 0
-15 -7 -15 -15z"/>
<path d="M3720 3805 c0 -8 7 -15 15 -15 8 0 15 7 15 15 0 8 -7 15 -15 15 -8 0
-15 -7 -15 -15z"/>
<path d="M3790 3805 c0 -8 7 -15 15 -15 8 0 15 7 15 15 0 8 -7 15 -15 15 -8 0
-15 -7 -15 -15z"/>
<path d="M3852 3804 c4 -21 22 -23 26 -1 2 10 -3 17 -13 17 -10 0 -15 -6 -13
-16z"/>
<path d="M3910 3805 c0 -8 9 -15 20 -15 11 0 20 7 20 15 0 8 -9 15 -20 15 -11
0 -20 -7 -20 -15z"/>
<path d="M3980 3805 c0 -8 7 -15 15 -15 8 0 15 7 15 15 0 8 -7 15 -15 15 -8 0
-15 -7 -15 -15z"/>
<path d="M4042 3804 c4 -21 22 -23 26 -1 2 10 -3 17 -13 17 -10 0 -15 -6 -13
-16z"/>
<path d="M4100 3805 c0 -8 9 -15 20 -15 11 0 20 7 20 15 0 8 -9 15 -20 15 -11
0 -20 -7 -20 -15z"/>
<path d="M4170 3805 c0 -8 7 -15 15 -15 8 0 15 7 15 15 0 8 -7 15 -15 15 -8 0
-15 -7 -15 -15z"/>
<path d="M4230 3806 c0 -19 27 -28 33 -11 7 15 -1 25 -20 25 -7 0 -13 -6 -13
-14z"/>
<path d="M4290 3805 c0 -8 9 -15 20 -15 11 0 20 7 20 15 0 8 -9 15 -20 15 -11
0 -20 -7 -20 -15z"/>
<path d="M4360 3806 c0 -8 4 -17 9 -20 10 -7 23 19 14 28 -11 11 -23 6 -23 -8z"/>
<path d="M3540 3740 c0 -11 5 -20 10 -20 6 0 10 9 10 20 0 11 -4 20 -10 20 -5
0 -10 -9 -10 -20z"/>
<path d="M3596 3752 c-7 -11 11 -38 20 -29 14 13 13 37 -1 37 -8 0 -16 -4 -19
-8z"/>
<path d="M3660 3740 c0 -11 7 -20 15 -20 8 0 15 9 15 20 0 11 -7 20 -15 20 -8
0 -15 -9 -15 -20z"/>
<path d="M3720 3740 c0 -11 7 -20 15 -20 8 0 15 9 15 20 0 11 -7 20 -15 20 -8
0 -15 -9 -15 -20z"/>
<path d="M3790 3740 c0 -11 7 -20 15 -20 8 0 15 9 15 20 0 11 -7 20 -15 20 -8
0 -15 -9 -15 -20z"/>
<path d="M3850 3740 c0 -11 7 -20 15 -20 8 0 15 9 15 20 0 11 -7 20 -15 20 -8
0 -15 -9 -15 -20z"/>
<path d="M3910 3740 c0 -13 7 -20 19 -20 14 0 18 5 14 20 -3 11 -12 20 -19 20
-8 0 -14 -9 -14 -20z"/>
<path d="M3980 3740 c0 -11 7 -20 15 -20 8 0 15 9 15 20 0 11 -7 20 -15 20 -8
0 -15 -9 -15 -20z"/>
<path d="M4040 3740 c0 -11 7 -20 15 -20 8 0 15 9 15 20 0 11 -7 20 -15 20 -8
0 -15 -9 -15 -20z"/>
<path d="M4100 3740 c0 -13 7 -20 20 -20 13 0 20 7 20 20 0 13 -7 20 -20 20
-13 0 -20 -7 -20 -20z"/>
<path d="M4170 3740 c0 -11 7 -20 15 -20 8 0 15 9 15 20 0 11 -7 20 -15 20 -8
0 -15 -9 -15 -20z"/>
<path d="M4230 3740 c0 -23 25 -27 33 -6 7 16 -1 26 -20 26 -7 0 -13 -9 -13
-20z"/>
<path d="M4290 3740 c0 -13 7 -20 20 -20 13 0 20 7 20 20 0 13 -7 20 -20 20
-13 0 -20 -7 -20 -20z"/>
<path d="M4360 3739 c0 -24 23 -21 28 4 2 10 -3 17 -12 17 -10 0 -16 -9 -16
-21z"/>
<path d="M3530 3675 c0 -8 7 -15 15 -15 8 0 15 7 15 15 0 8 -7 15 -15 15 -8 0
-15 -7 -15 -15z"/>
<path d="M3597 3675 c6 -17 25 -15 31 3 2 7 -5 12 -17 12 -14 0 -19 -5 -14
-15z"/>
<path d="M3660 3675 c0 -8 7 -15 15 -15 8 0 15 7 15 15 0 8 -7 15 -15 15 -8 0
-15 -7 -15 -15z"/>
<path d="M3720 3675 c0 -8 9 -15 20 -15 11 0 20 7 20 15 0 8 -9 15 -20 15 -11
0 -20 -7 -20 -15z"/>
<path d="M3783 3675 c0 -8 9 -15 19 -15 10 0 18 7 18 15 0 8 -8 15 -18 15 -10
0 -19 -7 -19 -15z"/>
<path d="M3850 3675 c0 -8 7 -15 15 -15 8 0 15 7 15 15 0 8 -7 15 -15 15 -8 0
-15 -7 -15 -15z"/>
<path d="M3910 3675 c0 -8 9 -15 20 -15 11 0 20 7 20 15 0 8 -9 15 -20 15 -11
0 -20 -7 -20 -15z"/>
<path d="M3980 3675 c0 -8 7 -15 15 -15 8 0 15 7 15 15 0 8 -7 15 -15 15 -8 0
-15 -7 -15 -15z"/>
<path d="M4040 3675 c0 -8 7 -15 15 -15 8 0 15 7 15 15 0 8 -7 15 -15 15 -8 0
-15 -7 -15 -15z"/>
<path d="M4100 3675 c0 -8 9 -15 20 -15 11 0 20 7 20 15 0 8 -9 15 -20 15 -11
0 -20 -7 -20 -15z"/>
<path d="M4170 3675 c0 -8 7 -15 15 -15 8 0 15 7 15 15 0 8 -7 15 -15 15 -8 0
-15 -7 -15 -15z"/>
<path d="M4230 3675 c0 -8 7 -15 15 -15 8 0 15 7 15 15 0 8 -7 15 -15 15 -8 0
-15 -7 -15 -15z"/>
<path d="M4290 3675 c0 -8 9 -15 20 -15 11 0 20 7 20 15 0 8 -9 15 -20 15 -11
0 -20 -7 -20 -15z"/>
<path d="M4360 3675 c0 -8 7 -15 15 -15 8 0 15 7 15 15 0 8 -7 15 -15 15 -8 0
-15 -7 -15 -15z"/>
<path d="M3530 3615 c0 -8 7 -15 15 -15 8 0 15 7 15 15 0 8 -7 15 -15 15 -8 0
-15 -7 -15 -15z"/>
<path d="M3590 3616 c0 -10 9 -16 21 -16 24 0 21 23 -4 28 -10 2 -17 -3 -17
-12z"/>
<path d="M3660 3610 c0 -18 3 -19 20 -10 22 12 18 30 -6 30 -8 0 -14 -9 -14
-20z"/>
<path d="M3720 3616 c0 -10 9 -16 21 -16 24 0 21 23 -4 28 -10 2 -17 -3 -17
-12z"/>
<path d="M3787 3623 c-13 -12 -7 -23 13 -23 11 0 20 7 20 15 0 15 -21 21 -33
8z"/>
<path d="M3850 3615 c0 -8 7 -15 15 -15 8 0 15 7 15 15 0 8 -7 15 -15 15 -8 0
-15 -7 -15 -15z"/>
<path d="M3910 3616 c0 -8 4 -17 8 -20 13 -8 35 11 28 23 -10 16 -36 14 -36
-3z"/>
<path d="M3980 3615 c0 -8 7 -15 15 -15 8 0 15 7 15 15 0 8 -7 15 -15 15 -8 0
-15 -7 -15 -15z"/>
<path d="M4040 3615 c0 -8 7 -15 15 -15 8 0 15 7 15 15 0 8 -7 15 -15 15 -8 0
-15 -7 -15 -15z"/>
<path d="M4100 3615 c0 -8 9 -15 20 -15 11 0 20 7 20 15 0 8 -9 15 -20 15 -11
0 -20 -7 -20 -15z"/>
<path d="M4172 3614 c4 -21 22 -23 26 -1 2 10 -3 17 -13 17 -10 0 -15 -6 -13
-16z"/>
<path d="M4230 3616 c0 -10 9 -16 21 -16 24 0 21 23 -4 28 -10 2 -17 -3 -17
-12z"/>
<path d="M4290 3616 c0 -15 24 -28 34 -19 13 14 5 33 -14 33 -11 0 -20 -6 -20
-14z"/>
<path d="M4362 3614 c4 -21 22 -23 26 -1 2 10 -3 17 -13 17 -10 0 -15 -6 -13
-16z"/>
<path d="M3540 3560 c-13 -9 -13 -11 0 -20 10 -6 16 -6 18 0 7 20 -3 30 -18
20z"/>
<path d="M3597 3563 c-13 -12 -7 -23 13 -23 11 0 20 7 20 15 0 15 -21 21 -33
8z"/>
<path d="M3660 3549 c0 -24 23 -21 28 4 2 10 -3 17 -12 17 -10 0 -16 -9 -16
-21z"/>
<path d="M3724 3559 c-3 -6 -1 -16 5 -22 9 -9 14 -8 21 3 9 15 4 30 -10 30 -5
0 -12 -5 -16 -11z"/>
<path d="M3784 3559 c-7 -12 15 -31 28 -23 4 3 8 12 8 20 0 17 -26 19 -36 3z"/>
<path d="M3850 3555 c0 -8 7 -15 15 -15 8 0 15 7 15 15 0 8 -7 15 -15 15 -8 0
-15 -7 -15 -15z"/>
<path d="M3915 3560 c-3 -5 -4 -14 0 -20 8 -13 35 -1 35 16 0 16 -26 19 -35 4z"/>
<path d="M3980 3556 c0 -8 7 -16 15 -20 10 -4 15 1 15 14 0 11 -7 20 -15 20
-8 0 -15 -6 -15 -14z"/>
<path d="M4042 3553 c5 -25 28 -28 28 -4 0 12 -6 21 -16 21 -9 0 -14 -7 -12
-17z"/>
<path d="M4104 3559 c-3 -6 -2 -15 4 -21 13 -13 32 -2 32 18 0 16 -26 19 -36
3z"/>
<path d="M4170 3555 c0 -8 7 -15 15 -15 8 0 15 7 15 15 0 8 -7 15 -15 15 -8 0
-15 -7 -15 -15z"/>
<path d="M4230 3550 c0 -15 5 -20 18 -18 9 2 17 10 17 18 0 8 -8 16 -17 18
-13 2 -18 -3 -18 -18z"/>
<path d="M4295 3560 c-8 -14 3 -30 21 -30 8 0 14 9 14 20 0 21 -24 28 -35 10z"/>
<path d="M4360 3555 c0 -9 5 -15 11 -13 6 2 11 8 11 13 0 5 -5 11 -11 13 -6 2
-11 -4 -11 -13z"/>
<path d="M710 3070 l0 -51 118 3 117 3 0 45 0 45 -117 3 -118 3 0 -51z"/>
<path d="M560 2995 c0 -13 26 -15 185 -15 l185 0 0 -30 0 -30 -110 0 -110 0 0
-30 0 -30 293 2 292 3 0 45 0 45 -153 0 c-136 0 -155 -2 -163 -17 -16 -30 -28
-20 -31 25 l-3 42 -192 3 c-167 2 -193 0 -193 -13z"/>
<path d="M4245 2650 c-4 -6 35 -10 110 -10 75 0 114 4 110 10 -3 6 -52 10
-110 10 -58 0 -107 -4 -110 -10z"/>
<path d="M800 1440 l0 -110 1765 0 1765 0 5 23 c3 12 5 60 3 107 l-3 85 -1767
3 -1768 2 0 -110z"/>
<path d="M1050 1294 c0 -3 21 -30 46 -60 l46 -54 320 0 c251 0 319 -3 316 -12
-4 -10 -78 -14 -310 -18 l-306 -5 62 -67 63 -68 247 0 c239 0 246 -1 246 -20
0 -19 -7 -20 -220 -20 -121 0 -220 -3 -220 -7 0 -5 40 -39 88 -77 305 -242
653 -382 1012 -406 269 -18 536 22 772 116 213 84 361 174 536 324 l53 45
-253 5 c-216 4 -253 7 -253 20 0 13 39 15 276 18 l276 2 62 70 62 70 -337 2
c-259 2 -338 6 -342 16 -3 9 69 12 338 12 203 0 349 4 360 10 10 5 34 32 54
60 l36 50 -1515 0 c-833 0 -1515 -3 -1515 -6z m1030 -149 c5 -14 16 -25 25
-25 9 0 15 -9 15 -25 0 -18 4 -23 15 -19 8 4 15 13 15 20 0 8 11 19 24 23 13
5 26 19 29 30 5 20 12 21 111 21 92 0 108 -2 113 -17 4 -10 19 -30 35 -45 l28
-26 0 28 c0 52 8 60 60 60 l47 0 54 -81 c29 -45 66 -97 81 -116 l27 -35 3 114
3 113 34 3 c19 2 44 1 57 -2 21 -6 24 -12 24 -51 0 -25 2 -45 4 -45 3 0 25 21
51 48 l46 47 134 3 c153 4 154 3 113 -69 l-22 -39 -90 0 -91 -1 -27 -45 c-34
-56 -34 -64 -3 -114 l25 -40 71 0 c62 0 70 2 67 18 -2 13 -15 18 -51 20 -46 3
-47 4 -47 35 0 54 8 58 106 55 l89 -3 7 -65 c3 -36 4 -89 1 -117 l-6 -53 -141
0 -141 1 -45 62 -45 62 -3 -63 -3 -62 -63 0 c-55 0 -64 3 -73 23 -11 24 -74
112 -110 156 l-22 26 -1 -102 0 -103 -54 0 -55 0 -6 54 -7 55 -39 -45 c-21
-25 -39 -49 -39 -55 0 -5 -46 -9 -105 -9 -58 0 -104 4 -103 8 4 12 -66 111
-78 112 -14 0 -24 23 -24 53 l0 21 -16 -22 c-13 -19 -24 -22 -85 -22 l-69 0 0
-75 0 -75 -60 0 -60 0 0 203 c0 112 3 207 7 210 3 4 62 7 130 7 123 0 124 0
133 -25z"/>
<path d="M1930 1030 c0 -28 3 -30 35 -30 32 0 35 2 35 30 0 28 -3 30 -35 30
-32 0 -35 -2 -35 -30z"/>
<path d="M2238 1013 l-36 -47 36 -53 c33 -46 41 -52 72 -52 31 -1 39 5 68 49
17 27 32 52 32 56 0 3 -16 26 -36 50 -29 35 -43 44 -68 44 -26 0 -38 -9 -68
-47z"/>
</g>
</svg>
